<mxfile host="app.diagrams.net" modified="2022-01-09T15:28:41.986Z" agent="5.0 (Macintosh; Intel Mac OS X 10_15_7) AppleWebKit/605.1.15 (KHTML, like Gecko) Version/15.2 Safari/605.1.15" etag="kNZ47wx2zklL98Tsit6i" version="16.2.4" type="github">
  <diagram id="pshgRTUTzzbv1leQq-Qf" name="Page-1">
    <mxGraphModel dx="946" dy="604" grid="1" gridSize="10" guides="1" tooltips="1" connect="1" arrows="1" fold="1" page="1" pageScale="1" pageWidth="827" pageHeight="1169" math="0" shadow="0">
      <root>
        <mxCell id="0" />
        <mxCell id="1" parent="0" />
        <mxCell id="mlD8pJYQVbWDTCXvoRbc-4" style="edgeStyle=orthogonalEdgeStyle;rounded=0;orthogonalLoop=1;jettySize=auto;html=1;exitX=0.5;exitY=1;exitDx=0;exitDy=0;" edge="1" parent="1" source="mlD8pJYQVbWDTCXvoRbc-1">
          <mxGeometry relative="1" as="geometry">
            <mxPoint x="145" y="540" as="targetPoint" />
          </mxGeometry>
        </mxCell>
        <mxCell id="mlD8pJYQVbWDTCXvoRbc-1" value="订单中心" style="rounded=0;whiteSpace=wrap;html=1;" vertex="1" parent="1">
          <mxGeometry x="90" y="40" width="110" height="30" as="geometry" />
        </mxCell>
        <mxCell id="mlD8pJYQVbWDTCXvoRbc-5" style="edgeStyle=orthogonalEdgeStyle;rounded=0;orthogonalLoop=1;jettySize=auto;html=1;exitX=0.5;exitY=1;exitDx=0;exitDy=0;startArrow=none;" edge="1" parent="1" source="mlD8pJYQVbWDTCXvoRbc-11">
          <mxGeometry relative="1" as="geometry">
            <mxPoint x="385" y="540" as="targetPoint" />
          </mxGeometry>
        </mxCell>
        <mxCell id="mlD8pJYQVbWDTCXvoRbc-2" value="支付中心" style="rounded=0;whiteSpace=wrap;html=1;" vertex="1" parent="1">
          <mxGeometry x="330" y="40" width="110" height="30" as="geometry" />
        </mxCell>
        <mxCell id="mlD8pJYQVbWDTCXvoRbc-6" style="edgeStyle=orthogonalEdgeStyle;rounded=0;orthogonalLoop=1;jettySize=auto;html=1;exitX=0.5;exitY=1;exitDx=0;exitDy=0;" edge="1" parent="1" source="mlD8pJYQVbWDTCXvoRbc-3">
          <mxGeometry relative="1" as="geometry">
            <mxPoint x="615" y="540" as="targetPoint" />
          </mxGeometry>
        </mxCell>
        <mxCell id="mlD8pJYQVbWDTCXvoRbc-3" value="Midtrans" style="rounded=0;whiteSpace=wrap;html=1;" vertex="1" parent="1">
          <mxGeometry x="560" y="40" width="110" height="30" as="geometry" />
        </mxCell>
        <mxCell id="mlD8pJYQVbWDTCXvoRbc-7" value="" style="rounded=1;whiteSpace=wrap;html=1;" vertex="1" parent="1">
          <mxGeometry x="135" y="90" width="20" height="50" as="geometry" />
        </mxCell>
        <mxCell id="mlD8pJYQVbWDTCXvoRbc-8" value="" style="curved=1;endArrow=classic;html=1;rounded=0;exitX=1;exitY=0.25;exitDx=0;exitDy=0;entryX=1;entryY=0.75;entryDx=0;entryDy=0;" edge="1" parent="1" source="mlD8pJYQVbWDTCXvoRbc-7" target="mlD8pJYQVbWDTCXvoRbc-7">
          <mxGeometry width="50" height="50" relative="1" as="geometry">
            <mxPoint x="400" y="290" as="sourcePoint" />
            <mxPoint x="450" y="240" as="targetPoint" />
            <Array as="points">
              <mxPoint x="180" y="103" />
              <mxPoint x="190" y="115" />
              <mxPoint x="180" y="128" />
            </Array>
          </mxGeometry>
        </mxCell>
        <mxCell id="mlD8pJYQVbWDTCXvoRbc-9" value="创建订单" style="edgeLabel;html=1;align=center;verticalAlign=middle;resizable=0;points=[];" vertex="1" connectable="0" parent="mlD8pJYQVbWDTCXvoRbc-8">
          <mxGeometry x="0.0633" y="1" relative="1" as="geometry">
            <mxPoint y="-3" as="offset" />
          </mxGeometry>
        </mxCell>
        <mxCell id="mlD8pJYQVbWDTCXvoRbc-10" value="" style="endArrow=classic;html=1;rounded=0;exitX=1;exitY=1;exitDx=0;exitDy=0;entryX=0;entryY=0.25;entryDx=0;entryDy=0;" edge="1" parent="1" source="mlD8pJYQVbWDTCXvoRbc-7" target="mlD8pJYQVbWDTCXvoRbc-11">
          <mxGeometry width="50" height="50" relative="1" as="geometry">
            <mxPoint x="400" y="290" as="sourcePoint" />
            <mxPoint x="370" y="140" as="targetPoint" />
          </mxGeometry>
        </mxCell>
        <mxCell id="mlD8pJYQVbWDTCXvoRbc-13" value="订单编号" style="edgeLabel;html=1;align=center;verticalAlign=middle;resizable=0;points=[];" vertex="1" connectable="0" parent="mlD8pJYQVbWDTCXvoRbc-10">
          <mxGeometry x="-0.2183" y="2" relative="1" as="geometry">
            <mxPoint x="19" y="1" as="offset" />
          </mxGeometry>
        </mxCell>
        <mxCell id="mlD8pJYQVbWDTCXvoRbc-11" value="" style="rounded=1;whiteSpace=wrap;html=1;" vertex="1" parent="1">
          <mxGeometry x="375" y="129" width="20" height="50" as="geometry" />
        </mxCell>
        <mxCell id="mlD8pJYQVbWDTCXvoRbc-12" value="" style="edgeStyle=orthogonalEdgeStyle;rounded=0;orthogonalLoop=1;jettySize=auto;html=1;exitX=0.5;exitY=1;exitDx=0;exitDy=0;endArrow=none;" edge="1" parent="1" source="mlD8pJYQVbWDTCXvoRbc-2" target="mlD8pJYQVbWDTCXvoRbc-11">
          <mxGeometry relative="1" as="geometry">
            <mxPoint x="385" y="540" as="targetPoint" />
            <mxPoint x="385" y="70" as="sourcePoint" />
          </mxGeometry>
        </mxCell>
      </root>
    </mxGraphModel>
  </diagram>
</mxfile>
